<svg width="966" height="730" viewBox="0 0 966 730" fill="none" xmlns="http://www.w3.org/2000/svg">
<g clip-path="url(#clip0_1_2)">
<path d="M341.957 366.234H236.064C234.895 366.233 233.773 365.767 232.946 364.94C232.119 364.113 231.654 362.992 231.652 361.822V251.54C231.654 250.37 232.119 249.248 232.946 248.421C233.773 247.594 234.895 247.129 236.064 247.127H341.957C343.126 247.129 344.248 247.594 345.075 248.421C345.902 249.248 346.367 250.37 346.369 251.54V361.822C346.367 362.992 345.902 364.113 345.075 364.94C344.248 365.767 343.126 366.233 341.957 366.234ZM236.064 248.892C235.363 248.893 234.69 249.172 234.193 249.668C233.697 250.165 233.418 250.838 233.417 251.54V361.822C233.418 362.524 233.697 363.197 234.193 363.693C234.69 364.189 235.363 364.469 236.064 364.469H341.957C342.659 364.469 343.331 364.189 343.828 363.693C344.324 363.197 344.603 362.524 344.604 361.822V251.54C344.603 250.838 344.324 250.165 343.828 249.668C343.331 249.172 342.659 248.893 341.957 248.892H236.064Z" fill="#3F3D56"/>
<path d="M258.628 269.87C257.833 269.87 257.072 270.185 256.51 270.747C255.948 271.309 255.632 272.071 255.632 272.865C255.632 273.66 255.948 274.421 256.51 274.983C257.072 275.545 257.833 275.861 258.628 275.861H319.393C320.188 275.861 320.95 275.545 321.511 274.983C322.073 274.421 322.389 273.66 322.389 272.865C322.389 272.071 322.073 271.309 321.511 270.747C320.95 270.185 320.188 269.87 319.393 269.87H258.628Z" fill="#E6E6E6"/>
<path d="M258.628 287.518C258.234 287.518 257.844 287.594 257.48 287.745C257.116 287.895 256.785 288.115 256.506 288.394C256.228 288.672 256.006 289.002 255.856 289.366C255.705 289.73 255.627 290.12 255.627 290.514C255.627 290.908 255.705 291.298 255.856 291.661C256.006 292.025 256.228 292.356 256.506 292.634C256.785 292.912 257.116 293.133 257.48 293.283C257.844 293.433 258.234 293.51 258.628 293.509H319.393C320.188 293.509 320.95 293.194 321.511 292.632C322.073 292.07 322.389 291.308 322.389 290.514C322.389 289.719 322.073 288.957 321.511 288.396C320.95 287.834 320.188 287.518 319.393 287.518H258.628Z" fill="#E6E6E6"/>
<path d="M289.011 343.492C285.282 343.492 281.636 342.386 278.535 340.314C275.435 338.242 273.018 335.298 271.591 331.852C270.164 328.407 269.79 324.616 270.518 320.958C271.246 317.301 273.041 313.941 275.678 311.304C278.315 308.667 281.675 306.872 285.332 306.144C288.99 305.416 292.781 305.79 296.226 307.217C299.672 308.644 302.616 311.061 304.688 314.161C306.76 317.262 307.866 320.908 307.866 324.637C307.86 329.636 305.872 334.428 302.337 337.963C298.802 341.498 294.01 343.486 289.011 343.492V343.492Z" fill="#6C63FF"/>
<path d="M515.426 0H621.318C622.488 0.00137356 623.609 0.466665 624.436 1.29381C625.264 2.12095 625.729 3.24241 625.73 4.41216V114.695C625.729 115.864 625.264 116.986 624.436 117.813C623.609 118.64 622.488 119.105 621.318 119.107H515.426C514.256 119.105 513.135 118.64 512.307 117.813C511.48 116.986 511.015 115.864 511.014 114.695V4.41216C511.015 3.24241 511.48 2.12095 512.307 1.29381C513.135 0.466665 514.256 0.00137356 515.426 0V0ZM621.318 117.342C622.02 117.341 622.693 117.062 623.189 116.566C623.685 116.069 623.965 115.397 623.965 114.695V4.41216C623.965 3.71029 623.685 3.03738 623.189 2.54108C622.693 2.04479 622.02 1.76563 621.318 1.76486H515.426C514.724 1.76563 514.051 2.04479 513.555 2.54108C513.058 3.03738 512.779 3.71029 512.778 4.41216V114.695C512.779 115.397 513.058 116.069 513.555 116.566C514.051 117.062 514.724 117.341 515.426 117.342H621.318Z" fill="#3F3D56"/>
<path d="M598.755 96.3645C599.549 96.3645 600.311 96.0489 600.873 95.4872C601.434 94.9254 601.75 94.1635 601.75 93.3691C601.75 92.5746 601.434 91.8127 600.873 91.2509C600.311 90.6892 599.549 90.3736 598.755 90.3736H537.989C537.195 90.3736 536.433 90.6892 535.871 91.2509C535.309 91.8127 534.994 92.5746 534.994 93.3691C534.994 94.1635 535.309 94.9254 535.871 95.4872C536.433 96.0489 537.195 96.3645 537.989 96.3645H598.755Z" fill="#E6E6E6"/>
<path d="M598.755 78.7159C599.549 78.7159 600.311 78.4003 600.873 77.8385C601.434 77.2768 601.75 76.5149 601.75 75.7204C601.75 74.926 601.434 74.1641 600.873 73.6023C600.311 73.0406 599.549 72.7249 598.755 72.7249H537.989C537.195 72.7249 536.433 73.0406 535.871 73.6023C535.309 74.1641 534.994 74.926 534.994 75.7204C534.994 76.5149 535.309 77.2768 535.871 77.8385C536.433 78.4003 537.195 78.7159 537.989 78.7159H598.755Z" fill="#E6E6E6"/>
<path d="M568.372 22.7422C572.101 22.7422 575.746 23.8481 578.847 25.9199C581.948 27.9917 584.364 30.9365 585.792 34.3818C587.219 37.8271 587.592 41.6183 586.865 45.2758C586.137 48.9333 584.341 52.293 581.704 54.9299C579.067 57.5669 575.708 59.3626 572.05 60.0902C568.393 60.8177 564.602 60.4443 561.156 59.0172C557.711 57.5901 554.766 55.1734 552.694 52.0727C550.622 48.972 549.517 45.3265 549.517 41.5973C549.522 36.5984 551.511 31.8058 555.045 28.271C558.58 24.7362 563.373 22.7479 568.372 22.7422Z" fill="#6C63FF"/>
<path d="M410.412 394H516.304C517.474 394.001 518.596 394.467 519.423 395.294C520.25 396.121 520.715 397.242 520.717 398.412V508.695C520.715 509.864 520.25 510.986 519.423 511.813C518.596 512.64 517.474 513.105 516.304 513.107H410.412C409.242 513.105 408.121 512.64 407.294 511.813C406.467 510.986 406.001 509.864 406 508.695V398.412C406.001 397.242 406.467 396.121 407.294 395.294C408.121 394.467 409.242 394.001 410.412 394V394ZM516.304 511.342C517.006 511.341 517.679 511.062 518.176 510.566C518.672 510.069 518.951 509.397 518.952 508.695V398.412C518.951 397.71 518.672 397.037 518.176 396.541C517.679 396.045 517.006 395.766 516.304 395.765H410.412C409.71 395.766 409.037 396.045 408.541 396.541C408.045 397.037 407.766 397.71 407.765 398.412V508.695C407.766 509.397 408.045 510.069 408.541 510.566C409.037 511.062 409.71 511.341 410.412 511.342H516.304Z" fill="#3F3D56"/>
<path d="M493.741 490.365C494.535 490.365 495.297 490.049 495.859 489.487C496.421 488.925 496.736 488.164 496.736 487.369C496.736 486.575 496.421 485.813 495.859 485.251C495.297 484.689 494.535 484.374 493.741 484.374H432.976C432.181 484.374 431.419 484.689 430.858 485.251C430.296 485.813 429.98 486.575 429.98 487.369C429.98 488.164 430.296 488.925 430.858 489.487C431.419 490.049 432.181 490.365 432.976 490.365H493.741Z" fill="#E6E6E6"/>
<path d="M493.741 472.716C494.535 472.716 495.297 472.4 495.859 471.839C496.421 471.277 496.736 470.515 496.736 469.72C496.736 468.926 496.421 468.164 495.859 467.602C495.297 467.041 494.535 466.725 493.741 466.725H432.976C432.181 466.725 431.419 467.041 430.858 467.602C430.296 468.164 429.98 468.926 429.98 469.72C429.98 470.515 430.296 471.277 430.858 471.839C431.419 472.4 432.181 472.716 432.976 472.716H493.741Z" fill="#E6E6E6"/>
<path d="M463.358 416.742C467.087 416.742 470.733 417.848 473.833 419.92C476.934 421.992 479.351 424.936 480.778 428.382C482.205 431.827 482.579 435.618 481.851 439.276C481.123 442.933 479.328 446.293 476.691 448.93C474.054 451.567 470.694 453.363 467.037 454.09C463.379 454.818 459.588 454.444 456.143 453.017C452.697 451.59 449.753 449.173 447.681 446.073C445.609 442.972 444.503 439.327 444.503 435.597C444.509 430.598 446.497 425.806 450.032 422.271C453.567 418.736 458.359 416.748 463.358 416.742Z" fill="#6C63FF"/>
<path d="M235.412 59H341.304C342.474 59.0014 343.596 59.4667 344.423 60.2938C345.25 61.121 345.715 62.2424 345.717 63.4122V173.695C345.715 174.864 345.25 175.986 344.423 176.813C343.596 177.64 342.474 178.105 341.304 178.107H235.412C234.242 178.105 233.121 177.64 232.294 176.813C231.467 175.986 231.001 174.864 231 173.695V63.4122C231.001 62.2424 231.467 61.121 232.294 60.2938C233.121 59.4667 234.242 59.0014 235.412 59ZM341.304 176.342C342.006 176.341 342.679 176.062 343.176 175.566C343.672 175.069 343.951 174.397 343.952 173.695V63.4122C343.951 62.7103 343.672 62.0374 343.176 61.5411C342.679 61.0448 342.006 60.7656 341.304 60.7649H235.412C234.71 60.7656 234.037 61.0448 233.541 61.5411C233.045 62.0374 232.766 62.7103 232.765 63.4122V173.695C232.766 174.397 233.045 175.069 233.541 175.566C234.037 176.062 234.71 176.341 235.412 176.342H341.304Z" fill="#3F3D56"/>
<path d="M318.741 155.365C319.535 155.365 320.297 155.049 320.859 154.487C321.421 153.925 321.736 153.164 321.736 152.369C321.736 151.575 321.421 150.813 320.859 150.251C320.297 149.689 319.535 149.374 318.741 149.374H257.976C257.181 149.374 256.419 149.689 255.858 150.251C255.296 150.813 254.98 151.575 254.98 152.369C254.98 153.164 255.296 153.925 255.858 154.487C256.419 155.049 257.181 155.365 257.976 155.365H318.741Z" fill="#E6E6E6"/>
<path d="M318.741 137.716C319.535 137.716 320.297 137.4 320.859 136.839C321.421 136.277 321.736 135.515 321.736 134.72C321.736 133.926 321.421 133.164 320.859 132.602C320.297 132.041 319.535 131.725 318.741 131.725H257.976C257.181 131.725 256.419 132.041 255.858 132.602C255.296 133.164 254.98 133.926 254.98 134.72C254.98 135.515 255.296 136.277 255.858 136.839C256.419 137.4 257.181 137.716 257.976 137.716H318.741Z" fill="#E6E6E6"/>
<path d="M288.358 81.7422C292.087 81.7422 295.733 82.8481 298.833 84.9199C301.934 86.9917 304.351 89.9365 305.778 93.3818C307.205 96.8271 307.579 100.618 306.851 104.276C306.123 107.933 304.328 111.293 301.691 113.93C299.054 116.567 295.694 118.363 292.037 119.09C288.379 119.818 284.588 119.444 281.143 118.017C277.697 116.59 274.753 114.173 272.681 111.073C270.609 107.972 269.503 104.327 269.503 100.597C269.509 95.5984 271.497 90.8058 275.032 87.271C278.567 83.7362 283.359 81.7479 288.358 81.7422Z" fill="#6C63FF"/>
<path d="M540.412 240H646.304C647.474 240.001 648.596 240.467 649.423 241.294C650.25 242.121 650.715 243.242 650.717 244.412V354.695C650.715 355.864 650.25 356.986 649.423 357.813C648.596 358.64 647.474 359.105 646.304 359.107H540.412C539.242 359.105 538.121 358.64 537.294 357.813C536.467 356.986 536.001 355.864 536 354.695V244.412C536.001 243.242 536.467 242.121 537.294 241.294C538.121 240.467 539.242 240.001 540.412 240V240ZM646.304 357.342C647.006 357.341 647.679 357.062 648.176 356.566C648.672 356.069 648.951 355.397 648.952 354.695V244.412C648.951 243.71 648.672 243.037 648.176 242.541C647.679 242.045 647.006 241.766 646.304 241.765H540.412C539.71 241.766 539.037 242.045 538.541 242.541C538.045 243.037 537.766 243.71 537.765 244.412V354.695C537.766 355.397 538.045 356.069 538.541 356.566C539.037 357.062 539.71 357.341 540.412 357.342H646.304Z" fill="#3F3D56"/>
<path d="M623.741 336.365C624.535 336.365 625.297 336.049 625.859 335.487C626.421 334.925 626.736 334.164 626.736 333.369C626.736 332.575 626.421 331.813 625.859 331.251C625.297 330.689 624.535 330.374 623.741 330.374H562.976C562.181 330.374 561.419 330.689 560.858 331.251C560.296 331.813 559.98 332.575 559.98 333.369C559.98 334.164 560.296 334.925 560.858 335.487C561.419 336.049 562.181 336.365 562.976 336.365H623.741Z" fill="#E6E6E6"/>
<path d="M623.741 318.716C624.535 318.716 625.297 318.4 625.859 317.839C626.421 317.277 626.736 316.515 626.736 315.72C626.736 314.926 626.421 314.164 625.859 313.602C625.297 313.041 624.535 312.725 623.741 312.725H562.976C562.181 312.725 561.419 313.041 560.858 313.602C560.296 314.164 559.98 314.926 559.98 315.72C559.98 316.515 560.296 317.277 560.858 317.839C561.419 318.4 562.181 318.716 562.976 318.716H623.741Z" fill="#E6E6E6"/>
<path d="M593.358 262.742C597.087 262.742 600.733 263.848 603.833 265.92C606.934 267.992 609.351 270.936 610.778 274.382C612.205 277.827 612.579 281.618 611.851 285.276C611.123 288.933 609.328 292.293 606.691 294.93C604.054 297.567 600.694 299.363 597.037 300.09C593.379 300.818 589.588 300.444 586.143 299.017C582.697 297.59 579.753 295.173 577.681 292.073C575.609 288.972 574.503 285.327 574.503 281.597C574.509 276.598 576.497 271.806 580.032 268.271C583.567 264.736 588.359 262.748 593.358 262.742Z" fill="#6C63FF"/>
<path d="M204.085 228.157C222.823 213.644 244.716 203.748 267.99 199.269C291.449 194.798 315.64 196.041 338.518 202.893C350.018 206.317 361.067 211.105 371.43 217.154C381.989 223.326 391.53 230.925 400.71 238.97C410.009 247.12 419.003 255.633 428.711 263.306C456.426 285.46 490.833 297.563 526.315 297.641C529.246 297.646 532.175 297.565 535.102 297.399C536.689 297.311 536.7 294.831 535.102 294.919C498.935 296.911 463.219 286.118 434.207 264.431C424.145 256.907 414.958 248.304 405.579 239.968C396.486 231.886 387.149 224.024 376.833 217.531C351.599 201.634 322.243 193.519 292.426 194.198C262.61 194.878 233.654 204.322 209.171 221.353C206.843 222.971 204.569 224.663 202.332 226.404C201.074 227.383 202.84 229.127 204.085 228.158V228.157Z" fill="#3F3D56"/>
<path d="M289.457 60.298C301.953 49.499 316.553 42.135 332.074 38.8021C347.718 35.4758 363.85 36.4007 379.107 41.4987C386.776 44.0466 394.144 47.6091 401.055 52.1101C408.097 56.7031 414.459 62.3571 420.581 68.3435C426.783 74.4078 432.78 80.7421 439.254 86.4513C457.737 102.936 480.682 111.942 504.344 112C506.298 112.003 508.252 111.943 510.204 111.82C511.262 111.755 511.269 109.909 510.204 109.975C486.085 111.457 462.267 103.426 442.919 87.2886C436.209 81.6902 430.083 75.2891 423.828 69.0862C417.764 63.0724 411.538 57.2224 404.658 52.3909C387.83 40.5619 368.253 34.5237 348.37 35.0294C328.486 35.535 309.176 42.5623 292.849 55.2345C291.297 56.4389 289.78 57.6976 288.288 58.9934C287.449 59.7219 288.627 61.0191 289.457 60.298V60.298Z" fill="#3F3D56"/>
<path d="M202.769 240.143C209.885 240.143 215.654 234.373 215.654 227.257C215.654 220.14 209.885 214.371 202.769 214.371C195.652 214.371 189.883 220.14 189.883 227.257C189.883 234.373 195.652 240.143 202.769 240.143Z" fill="#3F3D56"/>
<path d="M682.146 411.231C689.263 411.231 695.032 405.462 695.032 398.345C695.032 391.228 689.263 385.459 682.146 385.459C675.029 385.459 669.26 391.228 669.26 398.345C669.26 405.462 675.029 411.231 682.146 411.231Z" fill="#3F3D56"/>
<path d="M522.493 410.341C534.355 405.196 547.599 409.682 558.779 414.424C564.537 416.867 570.234 419.474 576.193 421.403C581.206 423.021 586.34 424.238 591.546 425.041C601.994 426.642 612.619 426.707 623.086 425.234C633.605 423.767 643.857 420.786 653.523 416.384C663.135 412.027 672.019 406.219 679.865 399.161C680.863 398.26 681.842 397.337 682.802 396.394C683.943 395.276 682.19 393.523 681.048 394.641C673.493 402.006 664.82 408.129 655.35 412.782C645.92 417.419 635.861 420.651 625.494 422.373C615.093 424.127 604.487 424.31 594.032 422.917C588.816 422.211 583.665 421.092 578.627 419.568C572.841 417.686 567.165 415.481 561.625 412.965C550.34 408.118 537.802 403.372 525.402 406.715C523.981 407.108 522.59 407.604 521.242 408.2C519.782 408.834 521.043 410.97 522.493 410.341V410.341Z" fill="#3F3D56"/>
<path d="M725.698 388.726L706.823 398.311C700.086 401.732 693.584 401.147 691.094 394.014C690.502 392.316 690.283 390.51 690.453 388.721C690.623 386.931 691.178 385.199 692.079 383.643C692.981 382.087 694.208 380.745 695.676 379.707C697.145 378.67 698.82 377.962 700.588 377.632L718.527 374.283L795.356 348.793L841.896 315.792L858.957 342.973L805.181 371.991L725.698 388.726Z" fill="#FFB8B8"/>
<path d="M813.808 706.872L799.366 704.465L800.971 677.187H816.215L813.808 706.872Z" fill="#FFB8B8"/>
<path d="M953.968 680.229L939.992 684.589L929.131 659.516L942.738 652.646L953.968 680.229Z" fill="#FFB8B8"/>
<path d="M946.185 656.327L928.535 663.548L844.295 552.832L817.819 682.803L800.169 679.594C788.846 567.542 779.614 453.25 790.942 399.194L856.329 396.386L886.014 491.056L900.455 555.239L946.185 656.327Z" fill="#2F2E41"/>
<path d="M813.013 728.932C810.373 729.498 807.62 729.206 805.158 728.098L796.579 724.237C789.386 723.868 784.488 725.301 780.483 720.074C779.353 718.58 778.644 716.811 778.428 714.95C778.213 713.09 778.499 711.205 779.257 709.493V709.493C780.009 707.774 781.205 706.286 782.722 705.183C784.239 704.079 786.022 703.399 787.889 703.212L799.672 695.788L800.29 701.354C805.675 704.405 812.069 703.087 818.844 700.117L822.542 713.061C823.019 714.73 823.148 716.479 822.921 718.2C822.694 719.92 822.116 721.576 821.222 723.065C820.329 724.553 819.139 725.841 817.727 726.851C816.315 727.86 814.71 728.569 813.013 728.932Z" fill="#2F2E41"/>
<path d="M959.687 702.381C957.373 703.774 954.675 704.391 951.986 704.142L942.619 703.277C935.695 705.263 931.528 708.209 926.043 704.566C924.489 703.52 923.243 702.077 922.435 700.387C921.627 698.698 921.286 696.822 921.448 694.956C921.601 693.087 922.249 691.291 923.325 689.755C924.401 688.218 925.867 686.996 927.572 686.214L936.305 675.365L938.697 680.429C944.782 681.565 950.401 678.243 955.844 673.234L963.545 684.275C964.538 685.699 965.228 687.311 965.572 689.013C965.916 690.714 965.907 692.468 965.545 694.165C965.184 695.863 964.477 697.468 963.469 698.882C962.461 700.295 961.174 701.486 959.687 702.381V702.381Z" fill="#2F2E41"/>
<path d="M832.26 282.461C848.212 282.461 861.143 269.53 861.143 253.579C861.143 237.628 848.212 224.697 832.26 224.697C816.309 224.697 803.378 237.628 803.378 253.579C803.378 269.53 816.309 282.461 832.26 282.461Z" fill="#FFB8B8"/>
<path d="M867.561 314.553L829.853 306.53L825.04 275.241L851.515 269.625L867.561 314.553Z" fill="#FFB8B8"/>
<path d="M857.131 400.398H789.739L804.929 362.26C803.826 349.137 809.387 339.485 817.348 331.082L827.447 305.728C843.764 294.988 856.066 295.791 869.166 309.739C884.697 331.73 873.946 364.787 857.131 400.398Z" fill="#6C63FF"/>
<path d="M826.644 481.429L824.728 502.511C824.044 510.036 820.092 515.232 812.726 513.548C810.973 513.147 809.328 512.373 807.902 511.277C806.477 510.182 805.304 508.791 804.466 507.2C803.628 505.61 803.143 503.857 803.045 502.061C802.947 500.266 803.238 498.471 803.898 496.798L810.599 479.824L829.853 401.2L826.644 344.237H858.736L854.724 405.211L826.644 481.429Z" fill="#FFB8B8"/>
<path d="M861.143 345.842H824.237L826.825 321.767C826.995 317.603 828.715 313.653 831.648 310.693C834.582 307.733 838.515 305.976 842.678 305.768V305.768C844.883 305.658 847.089 305.986 849.167 306.734C851.244 307.482 853.153 308.634 854.783 310.125C856.412 311.615 857.73 313.414 858.66 315.417C859.59 317.42 860.113 319.587 860.2 321.794L861.143 345.842Z" fill="#6C63FF"/>
<path d="M868.006 223.881C874.002 223.881 878.862 219.021 878.862 213.025C878.862 207.03 874.002 202.169 868.006 202.169C862.011 202.169 857.15 207.03 857.15 213.025C857.15 219.021 862.011 223.881 868.006 223.881Z" fill="#2F2E41"/>
<path d="M856.82 210.367C856.998 207.613 858.22 205.03 860.236 203.145C862.252 201.26 864.911 200.214 867.671 200.221C867.447 200.192 867.225 200.158 866.996 200.143C864.124 199.96 861.296 200.925 859.136 202.826C856.975 204.727 855.657 207.409 855.472 210.281C855.288 213.153 856.251 215.981 858.151 218.143C860.051 220.305 862.731 221.624 865.603 221.811C865.832 221.825 866.056 221.82 866.282 221.82C863.544 221.473 861.041 220.096 859.283 217.968C857.525 215.84 856.644 213.122 856.82 210.367V210.367Z" fill="#2F2E41"/>
<path d="M856.759 215.003C847.077 206.972 819.307 217.18 817.515 222.579C804.422 224.364 794.509 232.002 794.509 245.585V245.585C802.293 248.774 811.146 248.381 820.716 245.585C835.971 258.017 837.017 273.645 827.739 291.596L839.153 291.824L853.301 271.146L853.977 292.12L880.141 291.596V261.539C880.225 251.545 877.925 241.675 873.431 232.749C869.354 224.828 863.027 220.203 856.759 215.003Z" fill="#2F2E41"/>
<path d="M832.396 268.108C835.263 268.108 837.587 264.854 837.587 260.84C837.587 256.826 835.263 253.572 832.396 253.572C829.529 253.572 827.204 256.826 827.204 260.84C827.204 264.854 829.529 268.108 832.396 268.108Z" fill="#FFB8B8"/>
<path d="M179.195 270.062C179.195 270.062 182.32 215.972 198.543 228.263C214.767 240.554 191.458 275.079 191.458 275.079L179.195 270.062Z" fill="#FFB9B9"/>
<path d="M118.836 430.507C118.836 430.507 154.874 470.964 134.711 473.745C114.549 476.526 106.618 435.632 106.618 435.632L118.836 430.507Z" fill="#FFB9B9"/>
<path d="M71.8098 239.002C76.3329 240.192 80.4035 242.692 83.5104 246.189C86.6173 249.685 88.622 254.021 89.2727 258.652L100.736 340.244L116.806 405.328C116.806 405.328 124.841 412.559 121.627 416.577C118.413 420.594 125.645 437.468 125.645 437.468L105.557 443.896C105.557 443.896 103.146 427.022 99.129 426.219C95.5982 425.512 56.0744 319.93 46.5475 294.352C45.2339 290.825 44.4906 288.819 44.4906 288.819C44.4906 288.819 46.0976 234.984 71.8098 239.002Z" fill="#575A89"/>
<path d="M75.4789 664.492L87.8173 686.357C97.3721 706.756 88.8812 710.462 65.4539 700.35L60.1138 674.532L75.4789 664.492Z" fill="#FFB9B9"/>
<path d="M81.7043 693.552C81.7043 693.552 87.5615 684.016 89.68 685.612C91.7985 687.208 100.536 694.125 100.536 694.125L111.918 705.026C111.918 705.026 150.371 709.091 125.937 722.565C101.503 736.038 88 724.866 88 724.866C88 724.866 53.7776 726.646 54.3296 717.098C54.8817 707.55 65.9186 692.445 65.9186 692.445C65.9186 692.445 79.8289 701.77 81.7043 693.552Z" fill="#2F2E41"/>
<path d="M20.7274 417.339L32.2947 557.302C32.2947 557.302 32.6803 640.972 45.0186 657.166C57.357 673.36 57.7425 681.457 57.7425 681.457L83.1904 668.347C83.1904 668.347 70.0809 646.503 72.7799 643.159C74.4437 641.038 75.6276 638.582 76.2501 635.959L69.3098 549.591L82.4193 399.217L20.7274 417.339Z" fill="#2F2E41"/>
<path d="M52.344 664.492L41.548 693.024L17.064 682.788L29.981 661.407L52.344 664.492Z" fill="#FFB9B9"/>
<path d="M34.3334 683.414C34.3334 683.414 43.5161 677.675 44.664 679.97C45.8118 682.266 50.4032 692.023 50.4032 692.023L55.5685 706.371C55.5685 706.371 87.1343 726.458 60.1599 727.606C33.1855 728.754 26.2985 713.258 26.2985 713.258C26.2985 713.258 -4.11941 700.058 0.472004 692.023C5.06341 683.988 21.1332 675.654 21.1332 675.654C21.1332 675.654 29.1681 689.727 34.3334 683.414Z" fill="#2F2E41"/>
<path d="M118.663 417.724L124.832 546.506C124.832 546.506 68.5386 662.949 62.3694 666.034C60.5311 666.983 58.9017 668.291 57.5772 669.88C56.2527 671.47 55.2601 673.308 54.6579 675.288L20.7274 666.805L36.1504 642.128L70.0809 559.616C70.0809 559.616 75.4789 557.302 77.0213 549.591C78.5636 541.879 81.6482 541.879 73.9367 540.337C66.2252 538.794 66.2252 531.083 66.2252 531.083L40.7773 413.868L118.663 417.724Z" fill="#2F2E41"/>
<path d="M121.35 189.779C124.078 172.963 112.659 157.119 95.8429 154.39C79.0271 151.661 63.1831 163.081 60.4543 179.897C57.7255 196.712 69.1452 212.556 85.9609 215.285C102.777 218.014 118.621 206.594 121.35 189.779Z" fill="#FFB9B9"/>
<path d="M63.5262 186.765C63.5262 186.765 61.2127 226.094 58.1282 229.95C55.0436 233.805 90.5164 233.034 90.5164 233.034C90.5164 233.034 88.2029 199.875 90.5164 196.79C92.8298 193.706 63.5262 186.765 63.5262 186.765Z" fill="#FFB9B9"/>
<path d="M120.974 426.208C120.974 426.208 33.8339 418.498 17.6439 426.208C17.6439 426.208 23.6039 404.098 22.0639 401.788C20.9439 400.098 24.0339 337.118 23.0639 300.788C22.5139 280.288 17.7839 260.268 31.5339 245.048C36.2139 239.878 41.4339 235.538 46.9439 233.418C46.9439 233.418 45.4039 218.768 53.1139 217.998C53.1139 217.998 82.4239 214.908 93.2139 224.168C96.6639 227.108 98.8339 236.068 99.0639 243.788C93.7239 270.048 95.6139 299.188 100.514 329.418C100.814 331.338 101.144 333.268 101.474 335.198C106.674 365.178 114.534 396.088 120.974 426.208Z" fill="#575A89"/>
<path d="M74.7875 193.927C77.3961 193.771 79.9433 194.653 82.5338 194.997C91.8021 196.227 101.444 189.502 103.49 180.379C103.654 179.164 104.016 177.984 104.562 176.886C105.989 174.558 109.237 174.113 111.915 174.649C114.593 175.185 117.132 176.438 119.859 176.581C124.07 176.802 128.113 174.21 130.357 170.64C132.478 166.957 133.379 162.697 132.933 158.471L130.915 160.59C130.094 158.854 129.778 156.923 130.001 155.017C128.931 154.732 127.806 154.727 126.733 155.001C125.661 155.275 124.677 155.821 123.875 156.584C122.095 156.774 123.439 153.283 122.116 152.076C121.473 151.681 120.707 151.538 119.964 151.673C116.177 151.71 113.114 148.814 110.13 146.482C104.96 142.451 98.9136 139.693 92.4803 138.431C88.2043 137.597 83.6573 137.463 79.6021 139.055C76.3285 140.525 73.3741 142.621 70.9052 145.225C64.5564 151.329 58.9344 158.502 56.2932 166.905C54.1459 173.787 54.0851 181.151 56.1184 188.068C57.1826 191.66 60.3901 203.962 65.0857 204.248C70.9859 204.608 67.4435 194.365 74.7875 193.927Z" fill="#2F2E41"/>
<path d="M87.5553 242.788L98.6064 243.972C98.6064 243.972 109.455 265.018 108.667 269.408C107.879 273.798 106.163 271.133 111.046 278.157C115.929 285.18 129.784 303.335 131.499 306C133.215 308.665 179.988 272.978 177.08 262.286C177.08 262.286 191.852 272.883 198.181 274.294C198.181 274.294 149.978 337.512 143.26 345.602C136.543 353.693 131.137 352.031 121.906 347.234C112.674 342.437 65.973 294.59 65.973 294.59L87.5553 242.788Z" fill="#575A89"/>
<path opacity="0.1" d="M101.474 335.198L63.0639 296.788L72.7839 293.618L100.514 329.418C100.814 331.338 101.144 333.268 101.474 335.198Z" fill="black"/>
</g>
<defs>
<clipPath id="clip0_1_2">
<rect width="965.825" height="729.214" fill="white"/>
</clipPath>
</defs>
</svg>
