<svg width="653" height="614" viewBox="0 0 653 614" fill="none" xmlns="http://www.w3.org/2000/svg">
<g clip-path="url(#clip0_1_2)">
<path d="M432.741 146.5H238.37C230.188 146.5 223.555 153.133 223.555 161.315V261.685C223.555 269.867 230.188 276.5 238.37 276.5H432.741C440.923 276.5 447.555 269.867 447.555 261.685V161.315C447.555 153.133 440.923 146.5 432.741 146.5Z" fill="white"/>
<path d="M377.56 244.561H308.59C307.186 244.559 305.839 244.001 304.846 243.007C303.853 242.014 303.294 240.668 303.292 239.263V176.298C303.294 174.893 303.853 173.547 304.846 172.553C305.839 171.56 307.186 171.002 308.59 171H377.56C378.965 171.002 380.312 171.56 381.305 172.553C382.298 173.547 382.857 174.893 382.858 176.298V239.263C382.857 240.668 382.298 242.014 381.305 243.007C380.312 244.001 378.965 244.559 377.56 244.561V244.561Z" fill="white"/>
<path d="M377.561 245.561H308.59C306.921 245.559 305.32 244.895 304.139 243.714C302.959 242.534 302.294 240.933 302.293 239.263V176.298C302.294 174.628 302.959 173.027 304.139 171.847C305.32 170.666 306.921 170.002 308.59 170H377.561C379.23 170.002 380.831 170.666 382.012 171.847C383.192 173.027 383.857 174.628 383.859 176.298V239.263C383.857 240.933 383.192 242.534 382.012 243.714C380.831 244.895 379.23 245.559 377.561 245.561V245.561ZM308.59 172C307.451 172.001 306.359 172.455 305.553 173.26C304.747 174.066 304.294 175.158 304.293 176.298V239.263C304.294 240.403 304.747 241.495 305.553 242.301C306.359 243.106 307.451 243.56 308.59 243.561H377.561C378.7 243.56 379.792 243.106 380.598 242.301C381.404 241.495 381.857 240.403 381.859 239.263V176.298C381.857 175.158 381.404 174.066 380.598 173.26C379.792 172.455 378.7 172.001 377.561 172L308.59 172Z" fill="#CCCCCC"/>
<path d="M328.911 200.845C333.659 200.845 337.508 196.996 337.508 192.248C337.508 187.5 333.659 183.651 328.911 183.651C324.163 183.651 320.314 187.5 320.314 192.248C320.314 196.996 324.163 200.845 328.911 200.845Z" fill="#CCCCCC"/>
<path d="M363.276 213.912H322.874C322.195 213.912 321.544 213.642 321.064 213.162C320.584 212.682 320.314 212.031 320.314 211.352C320.314 210.673 320.584 210.022 321.064 209.542C321.544 209.062 322.195 208.792 322.874 208.792H363.276C363.955 208.792 364.606 209.062 365.086 209.542C365.566 210.022 365.836 210.673 365.836 211.352C365.836 212.031 365.566 212.682 365.086 213.162C364.606 213.642 363.955 213.912 363.276 213.912Z" fill="#CCCCCC"/>
<path d="M342.37 224.028H322.874C322.195 224.028 321.544 223.758 321.064 223.278C320.583 222.798 320.314 222.147 320.314 221.468C320.314 220.789 320.583 220.138 321.064 219.658C321.544 219.178 322.195 218.908 322.874 218.908H342.37C342.707 218.907 343.04 218.973 343.351 219.101C343.662 219.23 343.945 219.418 344.184 219.656C344.422 219.894 344.611 220.176 344.74 220.487C344.869 220.798 344.935 221.131 344.935 221.468C344.935 221.805 344.869 222.138 344.74 222.449C344.611 222.76 344.422 223.042 344.184 223.28C343.945 223.518 343.662 223.706 343.351 223.835C343.04 223.963 342.707 224.029 342.37 224.028V224.028Z" fill="#CCCCCC"/>
<path d="M307.152 263.041C303.562 263.041 300.053 261.976 297.067 259.982C294.082 257.987 291.756 255.152 290.382 251.835C289.008 248.518 288.648 244.868 289.349 241.347C290.049 237.826 291.778 234.591 294.317 232.053C296.855 229.514 300.09 227.785 303.611 227.085C307.132 226.384 310.782 226.744 314.099 228.118C317.416 229.492 320.251 231.818 322.246 234.803C324.24 237.789 325.305 241.298 325.305 244.888C325.305 249.703 323.392 254.32 319.988 257.724C316.584 261.128 311.967 263.041 307.152 263.041Z" fill="#CCCCCC"/>
<path d="M314.315 243.098H308.943V237.726C308.942 237.252 308.753 236.797 308.417 236.462C308.081 236.127 307.627 235.939 307.152 235.939C306.678 235.939 306.223 236.127 305.888 236.462C305.552 236.797 305.363 237.252 305.362 237.726V243.098H299.99C299.515 243.098 299.06 243.286 298.724 243.622C298.388 243.958 298.199 244.413 298.199 244.888C298.199 245.363 298.388 245.819 298.724 246.154C299.06 246.49 299.515 246.679 299.99 246.679H305.362V252.051C305.362 252.526 305.55 252.981 305.886 253.317C306.222 253.653 306.678 253.841 307.152 253.841C307.627 253.841 308.083 253.653 308.419 253.317C308.754 252.981 308.943 252.526 308.943 252.051V246.679H314.315C314.79 246.679 315.245 246.49 315.581 246.154C315.917 245.819 316.106 245.363 316.106 244.888C316.106 244.413 315.917 243.958 315.581 243.622C315.245 243.286 314.79 243.098 314.315 243.098V243.098Z" fill="white"/>
<path d="M432.741 277.5H238.371C234.178 277.495 230.158 275.828 227.193 272.863C224.228 269.898 222.56 265.878 222.556 261.685V161.315C222.56 157.122 224.228 153.102 227.193 150.137C230.158 147.173 234.178 145.505 238.371 145.5H432.741C436.933 145.505 440.953 147.173 443.918 150.138C446.883 153.102 448.55 157.122 448.555 161.315V261.685C448.55 265.878 446.883 269.898 443.918 272.863C440.953 275.827 436.933 277.495 432.741 277.5ZM238.371 147.5C234.708 147.504 231.196 148.961 228.606 151.551C226.017 154.141 224.56 157.652 224.556 161.315V261.685C224.56 265.348 226.017 268.859 228.606 271.449C231.196 274.039 234.708 275.496 238.371 275.5H432.741C436.403 275.496 439.915 274.039 442.504 271.449C445.094 268.859 446.551 265.348 446.555 261.685V161.315C446.551 157.652 445.094 154.141 442.504 151.551C439.915 148.961 436.403 147.504 432.741 147.5H238.371Z" fill="#3F3D56"/>
<path d="M639.686 131H445.315C441.255 130.996 437.362 129.381 434.491 126.509C431.62 123.638 430.005 119.745 430 115.685V15.3149C430.005 11.2545 431.62 7.36164 434.491 4.49051C437.362 1.61938 441.255 0.00444395 445.315 0H639.686C643.746 0.00464518 647.638 1.61968 650.51 4.4908C653.381 7.36192 654.995 11.2546 655 15.3149V115.685C654.995 119.745 653.381 123.638 650.51 126.509C647.638 129.38 643.746 130.995 639.686 131V131Z" fill="#F2F2F2"/>
<path d="M612.686 427H418.315C414.255 426.996 410.362 425.381 407.491 422.509C404.619 419.638 403.004 415.745 403 411.685V311.315C403.005 307.254 404.62 303.362 407.491 300.491C410.362 297.619 414.255 296.004 418.315 296H612.686C616.746 296.005 620.638 297.62 623.51 300.491C626.381 303.362 627.995 307.255 628 311.315V411.685C627.996 415.745 626.381 419.638 623.51 422.509C620.639 425.38 616.746 426.995 612.686 427V427Z" fill="#F2F2F2"/>
<path d="M557.56 389.561H488.59C487.186 389.559 485.839 389.001 484.846 388.007C483.853 387.014 483.294 385.668 483.292 384.263V321.298C483.294 319.893 483.853 318.547 484.846 317.553C485.839 316.56 487.186 316.002 488.59 316H557.56C558.965 316.002 560.312 316.56 561.305 317.553C562.298 318.547 562.857 319.893 562.858 321.298V384.263C562.857 385.668 562.298 387.014 561.305 388.007C560.312 389.001 558.965 389.559 557.56 389.561V389.561Z" fill="white"/>
<path d="M557.561 390.561H488.59C486.921 390.559 485.32 389.895 484.139 388.714C482.959 387.534 482.294 385.933 482.293 384.263V321.298C482.294 319.628 482.959 318.027 484.139 316.847C485.32 315.666 486.921 315.002 488.59 315H557.561C559.23 315.002 560.831 315.666 562.012 316.847C563.192 318.027 563.857 319.628 563.859 321.298V384.263C563.857 385.933 563.192 387.534 562.012 388.714C560.831 389.895 559.23 390.559 557.561 390.561V390.561ZM488.59 317C487.451 317.001 486.359 317.455 485.553 318.26C484.747 319.066 484.294 320.158 484.293 321.298V384.263C484.294 385.403 484.747 386.495 485.553 387.301C486.359 388.106 487.451 388.56 488.59 388.561H557.561C558.7 388.56 559.792 388.106 560.598 387.301C561.404 386.495 561.857 385.403 561.859 384.263V321.298C561.857 320.158 561.404 319.066 560.598 318.26C559.792 317.455 558.7 317.001 557.561 317L488.59 317Z" fill="#CCCCCC"/>
<path d="M508.911 345.845C513.659 345.845 517.508 341.996 517.508 337.248C517.508 332.5 513.659 328.651 508.911 328.651C504.163 328.651 500.314 332.5 500.314 337.248C500.314 341.996 504.163 345.845 508.911 345.845Z" fill="#CCCCCC"/>
<path d="M543.276 358.912H502.874C502.195 358.912 501.544 358.642 501.064 358.162C500.584 357.682 500.314 357.031 500.314 356.352C500.314 355.673 500.584 355.022 501.064 354.542C501.544 354.062 502.195 353.792 502.874 353.792H543.276C543.955 353.792 544.606 354.062 545.086 354.542C545.566 355.022 545.836 355.673 545.836 356.352C545.836 357.031 545.566 357.682 545.086 358.162C544.606 358.642 543.955 358.912 543.276 358.912Z" fill="#CCCCCC"/>
<path d="M522.37 369.028H502.874C502.195 369.028 501.544 368.758 501.064 368.278C500.583 367.798 500.314 367.147 500.314 366.468C500.314 365.789 500.583 365.138 501.064 364.658C501.544 364.178 502.195 363.908 502.874 363.908H522.37C522.707 363.907 523.04 363.973 523.351 364.101C523.662 364.23 523.945 364.418 524.184 364.656C524.422 364.894 524.611 365.176 524.74 365.487C524.869 365.798 524.935 366.131 524.935 366.468C524.935 366.805 524.869 367.138 524.74 367.449C524.611 367.76 524.422 368.042 524.184 368.28C523.945 368.518 523.662 368.706 523.351 368.835C523.04 368.963 522.707 369.029 522.37 369.028V369.028Z" fill="#CCCCCC"/>
<path d="M487.152 408.041C483.562 408.041 480.053 406.976 477.067 404.982C474.082 402.987 471.756 400.152 470.382 396.835C469.008 393.518 468.648 389.868 469.349 386.347C470.049 382.826 471.778 379.591 474.317 377.053C476.855 374.514 480.09 372.785 483.611 372.085C487.132 371.384 490.782 371.744 494.099 373.118C497.416 374.492 500.251 376.818 502.246 379.803C504.24 382.789 505.305 386.298 505.305 389.888C505.305 394.703 503.392 399.32 499.988 402.724C496.584 406.128 491.967 408.041 487.152 408.041Z" fill="#CCCCCC"/>
<path d="M494.315 388.098H488.943V382.726C488.942 382.252 488.753 381.797 488.417 381.462C488.081 381.127 487.627 380.939 487.152 380.939C486.678 380.939 486.223 381.127 485.888 381.462C485.552 381.797 485.363 382.252 485.362 382.726V388.098H479.99C479.515 388.098 479.06 388.286 478.724 388.622C478.388 388.958 478.199 389.413 478.199 389.888C478.199 390.363 478.388 390.819 478.724 391.154C479.06 391.49 479.515 391.679 479.99 391.679H485.362V397.051C485.362 397.526 485.55 397.981 485.886 398.317C486.222 398.653 486.678 398.841 487.152 398.841C487.627 398.841 488.083 398.653 488.419 398.317C488.754 397.981 488.943 397.526 488.943 397.051V391.679H494.315C494.79 391.679 495.245 391.49 495.581 391.154C495.917 390.819 496.106 390.363 496.106 389.888C496.106 389.413 495.917 388.958 495.581 388.622C495.245 388.286 494.79 388.098 494.315 388.098V388.098Z" fill="white"/>
<path d="M577.549 95.0609H508.579C507.175 95.0593 505.828 94.5006 504.835 93.5074C503.842 92.5142 503.283 91.1676 503.281 89.763V26.7977C503.283 25.3931 503.842 24.0465 504.835 23.0533C505.828 22.0602 507.175 21.5015 508.579 21.4999H577.549C578.954 21.5015 580.301 22.0602 581.294 23.0533C582.287 24.0465 582.846 25.3931 582.847 26.7977V89.763C582.846 91.1676 582.287 92.5142 581.294 93.5074C580.301 94.5006 578.954 95.0593 577.549 95.0609V95.0609Z" fill="white"/>
<path d="M577.55 96.061H508.579C506.91 96.0591 505.309 95.395 504.128 94.2143C502.948 93.0336 502.283 91.4328 502.282 89.7631V26.7978C502.283 25.1281 502.948 23.5273 504.128 22.3466C505.309 21.166 506.91 20.5018 508.579 20.4999H577.55C579.219 20.5018 580.82 21.166 582.001 22.3466C583.181 23.5273 583.846 25.1281 583.848 26.7978V89.7631C583.846 91.4328 583.181 93.0336 582.001 94.2143C580.82 95.395 579.219 96.0591 577.55 96.061V96.061ZM508.579 22.5C507.44 22.5013 506.348 22.9546 505.542 23.7603C504.736 24.566 504.283 25.6584 504.282 26.7978V89.7632C504.283 90.9026 504.736 91.995 505.542 92.8007C506.348 93.6064 507.44 94.0597 508.579 94.061H577.55C578.689 94.0597 579.781 93.6064 580.587 92.8007C581.393 91.995 581.846 90.9026 581.848 89.7632V26.7978C581.846 25.6583 581.393 24.566 580.587 23.7603C579.781 22.9545 578.689 22.5013 577.55 22.4999L508.579 22.5Z" fill="#CCCCCC"/>
<path d="M528.9 51.3451C533.648 51.3451 537.497 47.4961 537.497 42.7481C537.497 38.0001 533.648 34.1511 528.9 34.1511C524.152 34.1511 520.303 38.0001 520.303 42.7481C520.303 47.4961 524.152 51.3451 528.9 51.3451Z" fill="#CCCCCC"/>
<path d="M563.265 64.4121H522.863C522.184 64.4121 521.533 64.1424 521.053 63.6623C520.573 63.1822 520.303 62.531 520.303 61.8521C520.303 61.1731 520.573 60.522 521.053 60.0419C521.533 59.5618 522.184 59.2921 522.863 59.2921H563.265C563.944 59.2921 564.595 59.5618 565.075 60.0419C565.555 60.522 565.825 61.1731 565.825 61.8521C565.825 62.531 565.555 63.1822 565.075 63.6623C564.595 64.1424 563.944 64.4121 563.265 64.4121Z" fill="#CCCCCC"/>
<path d="M542.359 74.528H522.863C522.184 74.528 521.533 74.2583 521.053 73.7782C520.572 73.298 520.303 72.6469 520.303 71.9679C520.303 71.2889 520.572 70.6377 521.053 70.1576C521.533 69.6774 522.184 69.4077 522.863 69.4077H542.359C542.696 69.4071 543.029 69.4728 543.34 69.6012C543.651 69.7295 543.934 69.918 544.172 70.1558C544.411 70.3936 544.6 70.676 544.729 70.987C544.858 71.2979 544.924 71.6312 544.924 71.9679C544.924 72.3045 544.858 72.6378 544.729 72.9488C544.6 73.2597 544.411 73.5422 544.172 73.78C543.934 74.0178 543.651 74.2062 543.34 74.3346C543.029 74.4629 542.696 74.5287 542.359 74.528V74.528Z" fill="#CCCCCC"/>
<path d="M507.141 113.541C503.551 113.541 500.042 112.476 497.056 110.481C494.071 108.487 491.745 105.652 490.371 102.335C488.997 99.018 488.637 95.3681 489.338 91.8469C490.038 88.3256 491.767 85.0912 494.306 82.5525C496.844 80.0139 500.079 78.285 503.6 77.5846C507.121 76.8842 510.771 77.2437 514.088 78.6176C517.405 79.9915 520.24 82.3181 522.235 85.3033C524.229 88.2884 525.294 91.798 525.294 95.3882C525.294 100.203 523.381 104.82 519.977 108.224C516.573 111.628 511.956 113.541 507.141 113.541Z" fill="#CCCCCC"/>
<path d="M514.304 93.5976H508.932V88.2257C508.931 87.7515 508.742 87.2971 508.406 86.9622C508.07 86.6273 507.616 86.4393 507.141 86.4393C506.667 86.4393 506.212 86.6273 505.877 86.9622C505.541 87.2971 505.352 87.7515 505.351 88.2257V93.5976H499.979C499.504 93.5976 499.049 93.7862 498.713 94.1221C498.377 94.4579 498.188 94.9133 498.188 95.3882C498.188 95.8631 498.377 96.3186 498.713 96.6544C499.049 96.9902 499.504 97.1788 499.979 97.1788H505.351V102.551C505.351 103.026 505.539 103.481 505.875 103.817C506.211 104.153 506.667 104.341 507.141 104.341C507.616 104.341 508.072 104.153 508.408 103.817C508.743 103.481 508.932 103.026 508.932 102.551V97.1788H514.304C514.779 97.1788 515.234 96.9901 515.57 96.6543C515.906 96.3185 516.095 95.8631 516.095 95.3882C516.095 94.9133 515.906 94.4578 515.57 94.122C515.234 93.7862 514.779 93.5976 514.304 93.5976V93.5976Z" fill="white"/>
<path d="M164.835 334.42C164.402 334.422 163.971 334.462 163.545 334.541L156.463 289.71L163.558 246.551C164.004 243.836 163.404 241.053 161.879 238.763C160.354 236.473 158.018 234.846 155.341 234.211C152.663 233.576 149.845 233.98 147.454 235.341C145.063 236.702 143.277 238.919 142.456 241.546V241.546C139.797 250.056 138.481 258.929 138.555 267.845L138.803 297.279L157.682 342.482C157.847 343.861 158.407 345.163 159.295 346.231C160.182 347.3 161.36 348.089 162.685 348.503C164.011 348.918 165.428 348.941 166.766 348.569C168.104 348.198 169.306 347.447 170.228 346.408C171.15 345.369 171.751 344.086 171.961 342.713C172.171 341.341 171.979 339.936 171.409 338.67C170.84 337.403 169.916 336.328 168.75 335.574C167.583 334.82 166.224 334.419 164.835 334.42L164.835 334.42Z" fill="#FFB8B8"/>
<path d="M134.771 248.294C134.769 246.048 135.21 243.823 136.068 241.748C136.927 239.672 138.185 237.786 139.773 236.197C141.361 234.608 143.246 233.348 145.321 232.488C147.396 231.628 149.62 231.185 151.866 231.185C154.112 231.185 156.336 231.628 158.411 232.488C160.486 233.348 162.371 234.608 163.959 236.197C165.546 237.786 166.805 239.672 167.664 241.748C168.522 243.823 168.963 246.048 168.961 248.294L157.849 287.491L138.552 286.532L134.771 248.294Z" fill="#2F2E41"/>
<path d="M175.317 592.125L186.35 592.124L191.599 549.567L175.315 549.568L175.317 592.125Z" fill="#FFB8B8"/>
<path d="M205.6 604.561L189.021 593.111V585.641L187.14 585.751L175.32 586.461L171.58 586.681L169.45 612.221L169.381 613.071H177.211L177.37 612.221L178.61 605.681L181.78 612.221L182.191 613.071H202.95C204.186 613.068 205.371 612.577 206.246 611.704C207.121 610.831 207.615 609.647 207.62 608.411C207.621 607.653 207.437 606.907 207.086 606.236C206.734 605.566 206.224 604.991 205.6 604.561V604.561Z" fill="#2F2E41"/>
<path d="M109.146 566.692L117.913 573.391L147.924 542.764L134.985 532.877L109.146 566.692Z" fill="#FFB8B8"/>
<path d="M125.658 594.961L119.436 575.797L123.972 569.861L122.411 568.807L112.588 562.194L109.483 560.098L92.2833 579.098L91.7117 579.731L97.9332 584.485L98.5762 583.907L103.533 579.464L102.08 586.585L101.89 587.509L118.385 600.114C119.369 600.863 120.609 601.192 121.834 601.029C123.059 600.867 124.171 600.226 124.925 599.247C125.386 598.645 125.693 597.941 125.821 597.194C125.948 596.448 125.892 595.681 125.658 594.961V594.961Z" fill="#2F2E41"/>
<path d="M153.905 382.85L164.935 416.7C164.935 416.7 168.855 452.82 173.045 460.82C173.828 462.446 174.367 464.177 174.645 465.96C174.765 466.56 174.855 467.19 174.935 467.82C175.095 469.07 175.205 470.36 175.275 471.66C175.485 477.183 175.248 482.715 174.565 488.2C172.585 489.92 171.135 505.43 170.125 524.56C170.015 526.55 169.912 528.573 169.815 530.63C169.615 534.78 169.435 539.04 169.275 543.32C168.125 573.06 168.766 566.7 168.766 566.7C196.726 571.83 195.576 562.58 195.576 562.58C195.576 562.58 205.176 519.69 207.656 500.15C207.956 497.87 208.136 496.41 208.176 495.99C208.285 493.923 208.665 491.879 209.306 489.91C209.848 489.137 210.333 488.324 210.756 487.48C210.757 487.48 210.758 487.48 210.759 487.479C210.761 487.479 210.762 487.478 210.763 487.477C210.764 487.476 210.764 487.475 210.765 487.474C210.765 487.472 210.766 487.471 210.766 487.47C212.743 483.175 213.858 478.534 214.046 473.81C214.187 471.763 214.194 469.708 214.066 467.66C213.908 455.673 214.923 443.699 217.096 431.91C218.846 423.86 217.706 408.3 216.156 394.97C215.526 389.47 214.816 384.35 214.226 380.3C214.196 380.13 214.176 379.96 214.156 379.79C213.396 374.7 212.836 371.42 212.836 371.42C212.836 371.42 215.386 362.68 213.496 359.45C212.626 358 212.746 354.58 213.116 351.2C213.576 347.08 214.436 343.24 214.436 343.24L162.506 334.09C161.416 335.9 160.446 337.65 159.496 339.34C142.326 371.07 153.905 382.85 153.905 382.85Z" fill="#2F2E41"/>
<path d="M139.064 238.047C139.642 236.454 140.611 235.031 141.883 233.911C143.155 232.79 144.688 232.008 146.341 231.636C148.792 230.939 151.343 230.66 153.887 230.811C161.333 231.104 166.581 217.094 173.955 218.174C173.955 218.174 180.895 215.698 186.324 220.236C191.257 224.359 194.658 235.572 195.924 234.934C196.523 234.799 197.144 234.799 197.743 234.935C202.84 235.652 207.479 238.267 210.732 242.257C213.984 246.247 215.609 251.317 215.283 256.455L214.747 265.55C214.747 265.55 218.54 271.26 213.035 281.342L216.231 316.905C216.231 316.905 221.555 366.449 213.556 373.5C205.556 380.551 176.091 349.809 176.091 349.809C176.091 349.809 153.454 346.201 154.794 342.016C156.134 337.831 163.164 326.224 163.164 326.224C163.328 325.576 163.308 324.896 163.108 324.259C162.908 323.622 162.535 323.053 162.03 322.616C160.319 321.523 162.237 319.049 162.381 318.822C162.216 318.987 160.917 320.348 159.927 317.482C158.938 314.617 161.989 311.009 161.989 311.009L153.371 292.454L146.589 277.796L145.764 276.105L140.053 264.313L139.921 264.039C136.906 257.753 136.239 250.597 138.04 243.863C138.635 241.978 138.979 240.022 139.064 238.047Z" fill="#6C63FF"/>
<path d="M121.136 541.3C141.646 560.98 145.775 552.61 145.775 552.61C145.775 552.61 156.866 539.84 170.126 524.56C174.886 519.08 179.916 513.28 184.816 507.63C191.586 499.82 198.095 492.3 203.275 486.32C209.006 479.69 213.086 474.95 214.046 473.81C214.187 471.763 214.194 469.708 214.066 467.66C213.908 455.673 214.923 443.699 217.096 431.91C218.846 423.86 217.706 408.3 216.156 394.97C213.836 399.8 211.156 405.53 208.936 410.82C206.456 416.71 204.526 422.04 204.226 424.94C203.276 433.87 190.426 448.63 190.426 448.63L190.275 448.66C188.165 449.22 182.216 456.14 174.646 465.96C153.965 492.78 121.136 541.3 121.136 541.3Z" fill="#2F2E41"/>
<path d="M289.223 228.615C289.274 229.045 289.363 229.47 289.49 229.883L245.754 242.016L202.069 239.874C199.321 239.739 196.624 240.651 194.522 242.427C192.42 244.202 191.07 246.709 190.743 249.44C190.416 252.172 191.138 254.927 192.762 257.147C194.386 259.368 196.792 260.891 199.494 261.407V261.407C208.252 263.082 217.217 263.381 226.067 262.293L255.282 258.701L298.046 234.805C299.397 234.485 300.627 233.78 301.587 232.777C302.548 231.774 303.198 230.514 303.459 229.15C303.721 227.786 303.582 226.376 303.061 225.089C302.539 223.801 301.657 222.692 300.52 221.895C299.383 221.097 298.04 220.645 296.652 220.593C295.265 220.541 293.891 220.891 292.698 221.601C291.504 222.311 290.541 223.351 289.925 224.595C289.308 225.839 289.064 227.236 289.223 228.615L289.223 228.615Z" fill="#FFB8B8"/>
<path d="M207.073 268.276C204.842 268.533 202.582 268.347 200.423 267.73C198.264 267.113 196.247 266.076 194.489 264.679C192.73 263.283 191.264 261.553 190.174 259.59C189.084 257.626 188.392 255.467 188.137 253.236C187.881 251.005 188.068 248.746 188.686 246.587C189.304 244.428 190.342 242.412 191.74 240.654C193.137 238.896 194.867 237.431 196.831 236.342C198.795 235.253 200.954 234.562 203.186 234.307L243.392 240.891L244.633 260.172L207.073 268.276Z" fill="#2F2E41"/>
<path d="M200.066 203.184C197.585 207.72 193.633 211.277 188.861 213.267C184.09 215.257 178.782 215.563 173.813 214.135C168.844 212.706 164.51 209.627 161.524 205.406C158.538 201.185 157.079 196.072 157.387 190.911C157.695 185.75 159.751 180.847 163.218 177.011C166.684 173.175 171.353 170.633 176.457 169.805C181.561 168.977 186.794 169.911 191.296 172.455C195.797 174.999 199.298 178.999 201.222 183.798C201.326 184.059 201.42 184.319 201.514 184.59C202.602 187.615 203.035 190.837 202.785 194.042C202.536 197.248 201.609 200.363 200.066 203.184Z" fill="#FFB6B6"/>
<path d="M203.337 184.59C202.358 181.851 202.785 183.278 201.795 180.548C202.113 181.893 202.015 183.303 201.514 184.59H174.42V168.84C182.358 165.694 190.118 163.017 194.805 168.84C198.983 168.84 202.989 170.5 205.942 173.453C208.896 176.407 210.555 180.413 210.555 184.59H203.337Z" fill="#2F2E41"/>
<path d="M193.733 228.371C193.712 228.08 193.68 227.778 193.639 227.486C193.275 225.346 192.685 223.251 191.878 221.236C191.097 219.038 190.305 216.83 189.514 214.632C190.533 218.622 190.222 222.835 188.628 226.632C184.055 223.069 186.941 214.924 180.962 214.924C166.587 214.924 151.795 203.267 151.795 188.882C151.795 174.507 157.962 163.757 172.337 163.757C186.722 163.757 198.389 170.34 198.67 184.715C180.962 188.882 197.076 226.913 193.733 228.371Z" fill="#2F2E41"/>
<path d="M153.591 186.679C162.796 186.679 170.258 179.217 170.258 170.012C170.258 160.807 162.796 153.345 153.591 153.345C144.387 153.345 136.925 160.807 136.925 170.012C136.925 179.217 144.387 186.679 153.591 186.679Z" fill="#2F2E41"/>
<path d="M2.05284e-05 612.261C-0.000445541 612.418 0.0300089 612.573 0.0896507 612.717C0.149292 612.862 0.236923 612.993 0.347524 613.104C0.458125 613.215 0.589496 613.302 0.73409 613.362C0.878685 613.421 1.03364 613.452 1.19005 613.451H281.48C281.796 613.451 282.098 613.326 282.322 613.103C282.545 612.88 282.67 612.577 282.67 612.261C282.67 611.946 282.545 611.643 282.322 611.42C282.098 611.197 281.796 611.071 281.48 611.071H1.19005C1.03365 611.071 0.878713 611.101 0.734121 611.161C0.589528 611.221 0.458155 611.308 0.347555 611.419C0.236955 611.529 0.149294 611.661 0.0896507 611.805C0.030007 611.95 -0.000440232 612.105 2.05284e-05 612.261Z" fill="#CCCCCC"/>
</g>
<defs>
<clipPath id="clip0_1_2">
<rect width="652.055" height="613.451" fill="white"/>
</clipPath>
</defs>
</svg>
