<svg width="659" height="440" viewBox="0 0 659 440" fill="none" xmlns="http://www.w3.org/2000/svg">
<path d="M166.902 279.734C236.773 279.734 293.415 217.113 293.415 139.867C293.415 62.6206 236.773 0 166.902 0C97.0309 0 40.3891 62.6206 40.3891 139.867C40.3891 217.113 97.0309 279.734 166.902 279.734Z" fill="#F2F2F2"/>
<path d="M111.07 295.454C172.412 295.454 222.14 287.975 222.14 278.749C222.14 269.523 172.412 262.044 111.07 262.044C49.7277 262.044 0 269.523 0 278.749C0 287.975 49.7277 295.454 111.07 295.454Z" fill="#3F3D56"/>
<path opacity="0.1" d="M111.07 292.774C162.571 292.774 204.321 286.495 204.321 278.749C204.321 271.003 162.571 264.724 111.07 264.724C59.5688 264.724 17.8187 271.003 17.8187 278.749C17.8187 286.495 59.5688 292.774 111.07 292.774Z" fill="black"/>
<path d="M177.593 439.056C233.359 439.056 278.566 432.256 278.566 423.869C278.566 415.482 233.359 408.683 177.593 408.683C121.828 408.683 76.6205 415.482 76.6205 423.869C76.6205 432.256 121.828 439.056 177.593 439.056Z" fill="#3F3D56"/>
<path d="M267.875 411.064C321.331 426.167 424.086 391.365 435.371 351.966" stroke="#2F2E41" stroke-width="2" stroke-miterlimit="10"/>
<path d="M176.999 170.073C176.999 170.073 254.214 146.433 258.965 222.605C263.717 298.777 195.412 320.446 248.868 335.549" stroke="#2F2E41" stroke-width="2" stroke-miterlimit="10"/>
<path d="M102.4 352.808C102.4 352.808 125.607 345.703 127.035 368.597C128.463 391.491 107.934 398.004 124 402.543" stroke="#2F2E41" stroke-width="2" stroke-miterlimit="10"/>
<path d="M181.157 104.408H57.6139V263.318H181.157V104.408Z" fill="#787788" fill-opacity="0.68"/>
<path d="M193.63 88.6481H45.1408V145.12H193.63V88.6481Z" fill="#3F3D56" fill-opacity="0.68"/>
<path d="M193.63 155.627H45.1408V212.099H193.63V155.627Z" fill="#3F3D56" fill-opacity="0.68"/>
<path d="M193.63 222.605H45.1408V279.077H193.63V222.605Z" fill="#3F3D56" fill-opacity="0.68"/>
<path opacity="0.4" d="M163.932 98.4979H154.429V109.004H163.932V98.4979Z" fill="#5030E5"/>
<path opacity="0.8" d="M177.593 98.4979H168.09V109.004H177.593V98.4979Z" fill="#5030E5"/>
<path d="M191.254 98.4979H181.751V109.004H191.254V98.4979Z" fill="#5030E5"/>
<path opacity="0.4" d="M163.932 164.82H154.429V175.326H163.932V164.82Z" fill="#5030E5"/>
<path opacity="0.8" d="M177.593 164.82H168.09V175.326H177.593V164.82Z" fill="#5030E5"/>
<path d="M191.254 164.82H181.751V175.326H191.254V164.82Z" fill="#5030E5"/>
<path opacity="0.4" d="M163.932 231.142H154.429V241.648H163.932V231.142Z" fill="#5030E5"/>
<path opacity="0.8" d="M177.593 231.142H168.09V241.648H177.593V231.142Z" fill="#5030E5"/>
<path d="M191.254 231.142H181.751V241.648H191.254V231.142Z" fill="#5030E5"/>
<path d="M181.157 405.155C207.072 405.155 228.08 381.929 228.08 353.279C228.08 324.629 207.072 301.403 181.157 301.403C155.242 301.403 134.234 324.629 134.234 353.279C134.234 381.929 155.242 405.155 181.157 405.155Z" fill="#2F2E41"/>
<path d="M174.029 393.991H159.774V422.227H174.029V393.991Z" fill="#2F2E41"/>
<path d="M202.539 393.991H188.284V422.227H202.539V393.991Z" fill="#2F2E41"/>
<path d="M171.654 427.481C178.214 427.481 183.533 425.276 183.533 422.556C183.533 419.836 178.214 417.631 171.654 417.631C165.093 417.631 159.774 419.836 159.774 422.556C159.774 425.276 165.093 427.481 171.654 427.481Z" fill="#2F2E41"/>
<path d="M200.164 426.824C206.724 426.824 212.043 424.619 212.043 421.899C212.043 419.179 206.724 416.974 200.164 416.974C193.603 416.974 188.284 419.179 188.284 421.899C188.284 424.619 193.603 426.824 200.164 426.824Z" fill="#2F2E41"/>
<path d="M182.345 357.876C191.202 357.876 198.382 349.938 198.382 340.146C198.382 330.354 191.202 322.416 182.345 322.416C173.488 322.416 166.308 330.354 166.308 340.146C166.308 349.938 173.488 357.876 182.345 357.876Z" fill="white"/>
<path d="M182.345 346.056C185.297 346.056 187.69 343.41 187.69 340.146C187.69 336.882 185.297 334.236 182.345 334.236C179.393 334.236 176.999 336.882 176.999 340.146C176.999 343.41 179.393 346.056 182.345 346.056Z" fill="#3F3D56"/>
<path d="M135.64 305.036C131.852 286.277 143.963 267.322 162.692 262.699C181.42 258.075 199.674 269.534 203.463 288.293C207.252 307.052 194.84 313.971 176.111 318.594C157.382 323.218 139.429 323.795 135.64 305.036Z" fill="#5030E5"/>
<path d="M225.166 342.933C237.078 337.296 245.437 329.375 243.837 325.241C242.236 321.106 231.282 322.324 219.37 327.961C207.458 333.597 199.098 341.518 200.699 345.653C202.3 349.787 213.254 348.569 225.166 342.933Z" fill="#2F2E41"/>
<path d="M137.26 377.735C149.172 372.098 157.531 364.178 155.931 360.043C154.33 355.909 143.376 357.127 131.464 362.763C119.552 368.4 111.193 376.321 112.793 380.455C114.394 384.59 125.348 383.372 137.26 377.735Z" fill="#2F2E41"/>
<path d="M208.479 368.382C208.479 373.459 196.654 383.485 183.533 383.485C170.411 383.485 157.993 374.116 157.993 369.039C157.993 363.961 170.411 365.099 183.533 365.099C196.654 365.099 208.479 363.305 208.479 368.382Z" fill="white"/>
<path d="M405.023 155.551V159.906H401.82V166H396.37V159.906H385.159V155.043L395.57 137.855H401.82V155.551H405.023ZM389.28 155.551H396.37V143.324L389.28 155.551ZM417.386 166.703C413.779 166.703 411.247 165.44 409.788 162.914C408.343 160.388 407.62 156.788 407.62 152.113C407.62 147.439 408.343 143.832 409.788 141.293C411.247 138.754 413.779 137.484 417.386 137.484C420.993 137.484 423.525 138.754 424.984 141.293C426.429 143.832 427.152 147.439 427.152 152.113C427.152 156.788 426.422 160.388 424.964 162.914C423.519 165.44 420.993 166.703 417.386 166.703ZM420.648 159.574C421.155 157.855 421.409 155.368 421.409 152.113C421.409 148.702 421.149 146.176 420.628 144.535C420.12 142.895 419.04 142.074 417.386 142.074C415.732 142.074 414.639 142.895 414.105 144.535C413.571 146.176 413.304 148.702 413.304 152.113C413.304 155.368 413.571 157.862 414.105 159.594C414.639 161.312 415.732 162.172 417.386 162.172C419.04 162.172 420.127 161.306 420.648 159.574ZM449.554 155.551V159.906H446.351V166H440.902V159.906H429.691V155.043L440.101 137.855H446.351V155.551H449.554ZM433.812 155.551H440.902V143.324L433.812 155.551ZM399.378 201.648H393.265V212H387.288V183.211H399.827C402.718 183.211 405.023 183.953 406.741 185.438C408.46 186.922 409.32 189.22 409.32 192.332C409.32 195.73 408.46 198.133 406.741 199.539C405.023 200.945 402.568 201.648 399.378 201.648ZM402.191 195.652C402.972 194.962 403.362 193.868 403.362 192.371C403.362 190.874 402.965 189.806 402.171 189.168C401.39 188.53 400.29 188.211 398.87 188.211H393.265V196.688H398.87C400.29 196.688 401.396 196.342 402.191 195.652ZM427.718 206.082H417.112L415.12 212H408.831L419.105 183.211H425.902L436.097 212H429.573L427.718 206.082ZM426.038 201.121L422.445 189.793L418.734 201.121H426.038ZM457.425 211.297C455.836 212.273 453.883 212.762 451.566 212.762C447.751 212.762 444.626 211.44 442.191 208.797C439.652 206.141 438.382 202.508 438.382 197.898C438.382 193.237 439.665 189.5 442.23 186.688C444.795 183.875 448.187 182.469 452.405 182.469C456.064 182.469 459.001 183.4 461.214 185.262C463.441 187.111 464.717 189.422 465.042 192.195H459.124C458.668 190.229 457.555 188.855 455.784 188.074C454.795 187.645 453.695 187.43 452.484 187.43C450.166 187.43 448.258 188.309 446.761 190.066C445.277 191.811 444.534 194.441 444.534 197.957C444.534 201.499 445.342 204.005 446.956 205.477C448.571 206.948 450.407 207.684 452.464 207.684C454.482 207.684 456.136 207.104 457.425 205.945C458.714 204.773 459.508 203.243 459.808 201.355H453.148V196.551H465.14V212H461.155L460.55 208.406C459.391 209.773 458.349 210.737 457.425 211.297ZM490.941 199.422H476.956V206.824H492.894V212H471.077V183.211H492.191V188.309H476.956V194.422H490.941V199.422ZM531.995 212H525.98L514.222 191.551V212H508.616V183.211H514.925L526.39 203.309V183.211H531.995V212ZM550.355 212.801C546.24 212.801 543.096 211.681 540.921 209.441C538.004 206.694 536.546 202.736 536.546 197.566C536.546 192.293 538.004 188.335 540.921 185.691C543.096 183.452 546.24 182.332 550.355 182.332C554.469 182.332 557.614 183.452 559.788 185.691C562.692 188.335 564.144 192.293 564.144 197.566C564.144 202.736 562.692 206.694 559.788 209.441C557.614 211.681 554.469 212.801 550.355 212.801ZM556.038 205.066C557.431 203.309 558.128 200.809 558.128 197.566C558.128 194.337 557.425 191.844 556.019 190.086C554.626 188.315 552.737 187.43 550.355 187.43C547.972 187.43 546.071 188.309 544.652 190.066C543.232 191.824 542.523 194.324 542.523 197.566C542.523 200.809 543.232 203.309 544.652 205.066C546.071 206.824 547.972 207.703 550.355 207.703C552.737 207.703 554.632 206.824 556.038 205.066ZM589.671 183.211V188.309H581.058V212H575.003V188.309H566.351V183.211H589.671ZM407.562 234.309H393.128V240.93H405.765V245.93H393.128V258H387.152V229.25H407.562V234.309ZM424.339 258.801C420.224 258.801 417.08 257.681 414.905 255.441C411.989 252.694 410.53 248.736 410.53 243.566C410.53 238.293 411.989 234.335 414.905 231.691C417.08 229.452 420.224 228.332 424.339 228.332C428.454 228.332 431.598 229.452 433.773 231.691C436.676 234.335 438.128 238.293 438.128 243.566C438.128 248.736 436.676 252.694 433.773 255.441C431.598 257.681 428.454 258.801 424.339 258.801ZM430.023 251.066C431.416 249.309 432.112 246.809 432.112 243.566C432.112 240.337 431.409 237.844 430.003 236.086C428.61 234.315 426.722 233.43 424.339 233.43C421.956 233.43 420.055 234.309 418.636 236.066C417.217 237.824 416.507 240.324 416.507 243.566C416.507 246.809 417.217 249.309 418.636 251.066C420.055 252.824 421.956 253.703 424.339 253.703C426.722 253.703 428.616 252.824 430.023 251.066ZM459.769 246.906V229.211H465.882V246.906C465.882 249.966 465.407 252.349 464.456 254.055C462.685 257.18 459.306 258.742 454.32 258.742C449.333 258.742 445.947 257.18 444.163 254.055C443.213 252.349 442.737 249.966 442.737 246.906V229.211H448.851V246.906C448.851 248.885 449.085 250.331 449.554 251.242C450.283 252.857 451.872 253.664 454.32 253.664C456.754 253.664 458.336 252.857 459.066 251.242C459.534 250.331 459.769 248.885 459.769 246.906ZM494.925 258H488.909L477.152 237.551V258H471.546V229.211H477.855L489.32 249.309V229.211H494.925V258ZM512.952 258H500.55V229.211H512.952C514.736 229.237 516.221 229.445 517.405 229.836C519.424 230.5 521.058 231.717 522.308 233.488C523.31 234.921 523.994 236.47 524.359 238.137C524.723 239.803 524.905 241.392 524.905 242.902C524.905 246.73 524.137 249.973 522.601 252.629C520.517 256.21 517.301 258 512.952 258ZM517.425 236.555C516.501 234.992 514.671 234.211 511.937 234.211H506.39V253H511.937C514.775 253 516.754 251.6 517.874 248.801C518.486 247.264 518.792 245.435 518.792 243.312C518.792 240.383 518.336 238.13 517.425 236.555Z" fill="#979797"/>
</svg>
