<svg width="651" height="478" viewBox="0 0 651 478" fill="none" xmlns="http://www.w3.org/2000/svg">
<g clip-path="url(#clip0_1_2)">
<path d="M172.683 352.734C77.4648 352.734 0 275.269 0 180.052C0 84.8337 77.4648 7.36893 172.683 7.36893C200.349 7.39735 227.606 14.0584 252.167 26.7936C276.728 39.5289 297.878 57.9671 313.844 80.5623L312.21 81.7166C296.429 59.3825 275.524 41.1574 251.247 28.5694C226.97 15.9813 200.029 9.39709 172.683 9.36893C78.5684 9.36893 2 85.9373 2 180.052C2 274.166 78.5684 350.734 172.683 350.734C198.9 350.82 224.78 344.825 248.29 333.222C271.8 321.619 292.3 304.724 308.179 283.862L309.765 285.079C293.7 306.185 272.96 323.279 249.175 335.018C225.39 346.757 199.207 352.821 172.683 352.734V352.734Z" fill="#E6E6E6"/>
<path d="M244.072 151.134C242.179 151.134 240.328 150.573 238.754 149.521C237.18 148.469 235.953 146.974 235.229 145.225C234.504 143.476 234.315 141.551 234.684 139.695C235.054 137.838 235.965 136.132 237.304 134.793C238.643 133.455 240.348 132.543 242.205 132.174C244.062 131.805 245.986 131.994 247.735 132.719C249.484 133.443 250.979 134.67 252.031 136.244C253.083 137.818 253.644 139.669 253.644 141.562C253.644 144.101 252.636 146.535 250.841 148.33C249.046 150.125 246.611 151.134 244.072 151.134V151.134Z" fill="#E6E6E6"/>
<path d="M247.411 143.565L245.408 141.562L247.411 139.559C247.499 139.471 247.569 139.367 247.617 139.253C247.664 139.138 247.689 139.015 247.689 138.891C247.69 138.766 247.665 138.643 247.618 138.528C247.57 138.414 247.501 138.309 247.413 138.221C247.325 138.134 247.221 138.064 247.106 138.016C246.991 137.969 246.868 137.945 246.744 137.945C246.619 137.945 246.496 137.97 246.382 138.018C246.267 138.065 246.163 138.135 246.075 138.224L244.072 140.227L242.069 138.224C241.892 138.047 241.652 137.947 241.402 137.947C241.151 137.947 240.911 138.047 240.734 138.224C240.557 138.401 240.457 138.641 240.457 138.891C240.457 139.142 240.557 139.382 240.734 139.559L242.737 141.562L240.734 143.565C240.558 143.742 240.459 143.982 240.46 144.232C240.46 144.482 240.559 144.721 240.736 144.898C240.913 145.075 241.152 145.174 241.402 145.175C241.652 145.175 241.892 145.076 242.069 144.9L244.072 142.897L246.075 144.9C246.163 144.988 246.267 145.057 246.382 145.105C246.496 145.152 246.619 145.177 246.743 145.177C246.867 145.177 246.99 145.152 247.104 145.105C247.219 145.057 247.323 144.988 247.411 144.9C247.498 144.813 247.568 144.708 247.615 144.594C247.663 144.479 247.687 144.357 247.687 144.233C247.687 144.109 247.663 143.986 247.615 143.871C247.568 143.757 247.498 143.653 247.411 143.565Z" fill="white"/>
<path d="M196.468 38.0975C206.988 38.0975 215.517 29.5691 215.517 19.0487C215.517 8.52842 206.988 0 196.468 0C185.948 0 177.419 8.52842 177.419 19.0487C177.419 29.5691 185.948 38.0975 196.468 38.0975Z" fill="#E6E6E6"/>
<path d="M193.869 28.9627C193.54 28.9627 193.216 28.8861 192.922 28.739C192.628 28.5918 192.372 28.3782 192.174 28.115L186.978 21.1858C186.811 20.9632 186.689 20.7099 186.62 20.4404C186.551 20.1708 186.536 19.8903 186.575 19.6148C186.614 19.3394 186.708 19.0744 186.85 18.835C186.991 18.5955 187.179 18.3864 187.401 18.2194C187.624 18.0525 187.877 17.931 188.147 17.862C188.416 17.7929 188.697 17.7777 188.972 17.817C189.248 17.8564 189.513 17.9496 189.752 18.0914C189.992 18.2332 190.201 18.4207 190.368 18.6433L193.768 23.1762L202.5 10.078C202.813 9.61447 203.298 9.29377 203.847 9.18585C204.396 9.07793 204.965 9.19156 205.431 9.50195C205.896 9.81234 206.22 10.2943 206.332 10.8426C206.443 11.3909 206.333 11.9611 206.026 12.4288L195.633 28.0191C195.445 28.3011 195.192 28.5339 194.895 28.6979C194.599 28.862 194.267 28.9526 193.928 28.962L193.869 28.9627Z" fill="white"/>
<path d="M219.792 53.4145H173.985C171.185 53.4145 168.915 55.6842 168.915 58.484V60.3085C168.915 63.1083 171.185 65.378 173.985 65.378H219.792C222.592 65.378 224.862 63.1083 224.862 60.3085V58.484C224.862 55.6842 222.592 53.4145 219.792 53.4145Z" fill="#E6E6E6"/>
<path d="M248.205 77.3415H145.572C142.772 77.3415 140.502 79.6112 140.502 82.411V84.2354C140.502 87.0352 142.772 89.3049 145.572 89.3049H248.205C251.005 89.3049 253.275 87.0352 253.275 84.2354V82.411C253.275 79.6112 251.005 77.3415 248.205 77.3415Z" fill="#E6E6E6"/>
<path d="M248.205 101.268H145.572C142.772 101.268 140.502 103.538 140.502 106.338V108.162C140.502 110.962 142.772 113.232 145.572 113.232H248.205C251.005 113.232 253.275 110.962 253.275 108.162V106.338C253.275 103.538 251.005 101.268 248.205 101.268Z" fill="#E6E6E6"/>
<path d="M185.779 356.381C183.886 356.381 182.035 355.82 180.461 354.768C178.887 353.716 177.66 352.222 176.936 350.472C176.211 348.723 176.021 346.799 176.391 344.942C176.76 343.085 177.672 341.38 179.01 340.041C180.349 338.702 182.055 337.791 183.911 337.421C185.768 337.052 187.693 337.242 189.442 337.966C191.191 338.691 192.686 339.917 193.738 341.492C194.789 343.066 195.351 344.916 195.351 346.809C195.351 349.348 194.342 351.783 192.547 353.578C190.752 355.373 188.318 356.381 185.779 356.381V356.381Z" fill="#E6E6E6"/>
<path d="M189.117 348.812L187.114 346.809L189.117 344.806C189.294 344.629 189.394 344.389 189.394 344.139C189.394 343.888 189.294 343.648 189.117 343.471C188.94 343.294 188.7 343.194 188.45 343.194C188.199 343.194 187.959 343.294 187.782 343.471L185.779 345.474L183.776 343.471C183.599 343.294 183.359 343.194 183.108 343.194C182.858 343.194 182.618 343.294 182.441 343.471C182.263 343.648 182.164 343.888 182.164 344.139C182.164 344.389 182.263 344.629 182.441 344.806L184.444 346.809L182.441 348.812C182.263 348.989 182.164 349.23 182.164 349.48C182.164 349.73 182.263 349.971 182.441 350.148C182.618 350.325 182.858 350.424 183.108 350.424C183.359 350.424 183.599 350.325 183.776 350.148L185.779 348.145L187.782 350.148C187.959 350.325 188.199 350.424 188.45 350.424C188.7 350.424 188.94 350.325 189.117 350.148C189.294 349.971 189.394 349.73 189.394 349.48C189.394 349.23 189.294 348.989 189.117 348.812V348.812Z" fill="white"/>
<path d="M138.175 243.345C148.695 243.345 157.223 234.817 157.223 224.296C157.223 213.776 148.695 205.247 138.175 205.247C127.654 205.247 119.126 213.776 119.126 224.296C119.126 234.817 127.654 243.345 138.175 243.345Z" fill="#E6E6E6"/>
<path d="M135.576 234.21C135.247 234.21 134.923 234.134 134.628 233.986C134.334 233.839 134.078 233.626 133.881 233.362L128.684 226.433C128.517 226.211 128.396 225.957 128.327 225.688C128.258 225.418 128.242 225.138 128.282 224.862C128.321 224.587 128.414 224.322 128.556 224.082C128.698 223.843 128.885 223.634 129.108 223.467C129.331 223.3 129.584 223.178 129.853 223.109C130.123 223.04 130.404 223.025 130.679 223.064C130.954 223.104 131.219 223.197 131.459 223.339C131.698 223.481 131.907 223.668 132.074 223.891L135.474 228.424L144.207 215.325C144.36 215.092 144.558 214.891 144.79 214.734C145.021 214.578 145.281 214.468 145.555 214.413C145.829 214.357 146.111 214.356 146.385 214.41C146.659 214.463 146.92 214.571 147.153 214.726C147.385 214.881 147.585 215.08 147.74 215.313C147.895 215.545 148.003 215.806 148.057 216.08C148.111 216.355 148.11 216.637 148.054 216.911C147.999 217.185 147.889 217.445 147.733 217.676L137.339 233.267C137.151 233.549 136.898 233.781 136.602 233.945C136.305 234.109 135.974 234.2 135.635 234.209L135.576 234.21Z" fill="white"/>
<path d="M161.499 258.662H115.691C112.892 258.662 110.622 260.932 110.622 263.731V265.556C110.622 268.356 112.892 270.625 115.691 270.625H161.499C164.299 270.625 166.568 268.356 166.568 265.556V263.731C166.568 260.932 164.299 258.662 161.499 258.662Z" fill="#E6E6E6"/>
<path d="M189.912 282.589H87.2781C84.4783 282.589 82.2086 284.859 82.2086 287.658V289.483C82.2086 292.283 84.4783 294.552 87.2781 294.552H189.912C192.712 294.552 194.982 292.283 194.982 289.483V287.658C194.982 284.859 192.712 282.589 189.912 282.589Z" fill="#E6E6E6"/>
<path d="M189.912 306.516H87.2781C84.4783 306.516 82.2086 308.786 82.2086 311.585V313.41C82.2086 316.21 84.4783 318.479 87.2781 318.479H189.912C192.712 318.479 194.982 316.21 194.982 313.41V311.585C194.982 308.786 192.712 306.516 189.912 306.516Z" fill="#E6E6E6"/>
<path d="M383.789 315.541C381.175 315.541 378.62 314.766 376.446 313.314C374.272 311.861 372.578 309.797 371.578 307.382C370.577 304.966 370.315 302.309 370.825 299.745C371.335 297.181 372.594 294.825 374.443 292.977C376.291 291.128 378.647 289.869 381.211 289.359C383.775 288.849 386.433 289.111 388.848 290.112C391.263 291.112 393.327 292.806 394.78 294.98C396.232 297.154 397.008 299.709 397.008 302.323C397.008 305.829 395.615 309.191 393.136 311.67C390.657 314.149 387.295 315.541 383.789 315.541V315.541Z" fill="#E6E6E6"/>
<path d="M388.399 305.089L385.633 302.323L388.399 299.557C388.644 299.313 388.781 298.981 388.781 298.635C388.781 298.29 388.644 297.958 388.399 297.714C388.155 297.469 387.823 297.332 387.477 297.332C387.132 297.332 386.8 297.469 386.555 297.714L383.789 300.48L381.023 297.714C380.779 297.469 380.447 297.332 380.101 297.332C379.756 297.332 379.424 297.469 379.179 297.714C378.935 297.958 378.797 298.29 378.797 298.635C378.797 298.981 378.935 299.313 379.179 299.557L381.945 302.323L379.179 305.089C378.935 305.334 378.797 305.666 378.797 306.011C378.797 306.357 378.935 306.689 379.179 306.933C379.424 307.178 379.756 307.315 380.101 307.315C380.447 307.315 380.779 307.178 381.023 306.933L383.789 304.168L386.555 306.933C386.8 307.178 387.131 307.315 387.477 307.315C387.823 307.315 388.155 307.178 388.399 306.933C388.644 306.689 388.781 306.357 388.781 306.011C388.781 305.666 388.644 305.334 388.399 305.089L388.399 305.089Z" fill="white"/>
<path d="M326.199 159.449C340.727 159.449 352.504 147.672 352.504 133.144C352.504 118.617 340.727 106.84 326.199 106.84C311.672 106.84 299.895 118.617 299.895 133.144C299.895 147.672 311.672 159.449 326.199 159.449Z" fill="#6C63FF"/>
<path d="M322.611 146.835C322.157 146.835 321.709 146.729 321.302 146.526C320.896 146.323 320.543 146.028 320.27 145.664L313.094 136.096C312.864 135.788 312.696 135.438 312.6 135.066C312.505 134.694 312.484 134.307 312.538 133.926C312.593 133.546 312.721 133.18 312.917 132.849C313.113 132.519 313.372 132.23 313.679 131.999C313.987 131.769 314.337 131.601 314.709 131.506C315.081 131.41 315.468 131.389 315.849 131.443C316.229 131.498 316.595 131.627 316.926 131.822C317.256 132.018 317.545 132.277 317.776 132.585L322.471 138.844L334.529 120.757C334.742 120.437 335.016 120.162 335.335 119.948C335.655 119.734 336.013 119.585 336.39 119.51C336.767 119.434 337.155 119.434 337.532 119.509C337.909 119.583 338.268 119.731 338.587 119.944C338.907 120.158 339.182 120.432 339.396 120.751C339.609 121.07 339.758 121.429 339.834 121.806C339.909 122.182 339.909 122.57 339.834 122.947C339.76 123.324 339.612 123.683 339.398 124.003L325.046 145.532C324.786 145.921 324.437 146.242 324.027 146.469C323.618 146.696 323.16 146.821 322.692 146.834C322.665 146.834 322.638 146.835 322.611 146.835Z" fill="white"/>
<path d="M360.339 180.6H293.221C290.421 180.6 288.152 182.87 288.152 185.67V192.051C288.152 194.851 290.421 197.121 293.221 197.121H360.339C363.139 197.121 365.408 194.851 365.408 192.051V185.67C365.408 182.87 363.139 180.6 360.339 180.6Z" fill="#3F3D56"/>
<path d="M399.575 213.641H253.985C251.185 213.641 248.916 215.911 248.916 218.711V225.092C248.916 227.892 251.185 230.162 253.985 230.162H399.575C402.375 230.162 404.644 227.892 404.644 225.092V218.711C404.644 215.911 402.375 213.641 399.575 213.641Z" fill="#3F3D56"/>
<path d="M399.575 246.682H253.985C251.185 246.682 248.916 248.952 248.916 251.751V258.133C248.916 260.933 251.185 263.202 253.985 263.202H399.575C402.375 263.202 404.644 260.933 404.644 258.133V251.751C404.644 248.952 402.375 246.682 399.575 246.682Z" fill="#3F3D56"/>
<path d="M450.676 463.637L437.92 463.636L431.851 414.433L450.679 414.434L450.676 463.637Z" fill="#FFB6B6"/>
<path d="M450.336 459.47L436.716 453.931L436.326 453.771L428.806 459.47C424.56 459.471 420.488 461.158 417.486 464.16C414.484 467.163 412.797 471.235 412.796 475.48V476.001H453.926V459.47H450.336Z" fill="#2F2E41"/>
<path d="M558.496 452.952L546.314 456.737L525.916 411.551L543.896 405.965L558.496 452.952Z" fill="#FFB6B6"/>
<path d="M556.934 449.074L542.284 447.826L541.864 447.789L536.374 455.464C532.32 456.725 528.932 459.544 526.956 463.302C524.98 467.06 524.577 471.449 525.837 475.504L525.991 476L565.268 463.794L560.362 448.009L556.934 449.074Z" fill="#2F2E41"/>
<path d="M507.456 211.586L512.644 226.342V234.318L511.921 243.089L519.951 272.343L526.251 336.851L557.951 432.343L533.644 439.343L471.585 283.319L451.983 441.132L429.754 440.539C429.754 440.539 425.951 431.343 426.951 426.343C427.951 421.343 427.951 427.343 427.951 421.343C427.951 415.343 423.616 417.949 426.784 413.146C429.951 408.343 429.557 404.138 429.754 401.24C429.951 398.343 427.951 281.343 427.951 277.343C427.951 273.343 427.259 274.219 427.605 270.281C427.951 266.343 432.346 267.961 431.149 261.152C429.951 254.343 429.557 255.533 429.754 250.438C429.951 245.343 432.707 215.468 432.707 215.468L507.456 211.586Z" fill="#2F2E41"/>
<path d="M424.262 216.386L468.825 173.411L481.176 138.439L462.957 130.517C453.6 139.481 443.484 167.401 443.484 167.401L412.819 206.414C412.58 206.496 412.342 206.583 412.107 206.687C410.725 207.296 409.525 208.251 408.62 209.46C407.716 210.669 407.139 212.09 406.945 213.587C406.75 215.084 406.946 216.606 407.511 218.005C408.077 219.405 408.994 220.635 410.174 221.576C411.354 222.518 412.757 223.139 414.247 223.38C415.737 223.62 417.264 223.473 418.681 222.951C420.097 222.429 421.355 221.551 422.333 220.401C423.311 219.251 423.975 217.868 424.262 216.386V216.386Z" fill="#FFB8B8"/>
<path d="M457.831 134.422L480.94 141.758L481.027 141.744C489.628 140.303 496.765 126.255 501.237 114.725C502.709 110.921 502.681 106.701 501.16 102.917C499.639 99.1331 496.739 96.0679 493.044 94.3409C490.31 93.0854 487.28 92.6195 484.295 92.9961C481.31 93.3727 478.49 94.5767 476.154 96.4719L464.288 106.168L457.831 134.422Z" fill="#6C63FF"/>
<path d="M511.382 230.542L511.517 230.362C518.727 220.8 508.866 197.12 507.375 193.686L514.079 191.7L512.911 178.935L512.348 173.244L517.56 168.294L517.578 168.167L521.163 142.656L525.853 125.772C527.621 119.389 527.658 112.65 525.961 106.248C524.264 99.8454 520.894 94.01 516.197 89.3405L506.608 79.8206L495.121 61.8398L475.86 61.3426L468.934 73.6462C462.493 74.9607 456.718 78.4931 452.613 83.6281C448.509 88.7631 446.336 95.1752 446.473 101.747L447.126 134.502L440.215 175.085L440.021 182.457L433.237 189.615L434.492 196.851L429.418 198.872L426.935 209.156C425.986 210.342 419.725 218.256 419.668 220.463C419.66 220.794 419.896 221.12 420.411 221.489C424.464 224.389 447.117 230.672 457.312 226.895C468.171 222.874 510.732 230.425 511.161 230.502L511.382 230.542Z" fill="#6C63FF"/>
<path d="M464.167 126.707L454.329 107.092C440.048 108.068 411.705 124.58 411.705 124.58L358.079 135.949C356.49 135.339 354.769 135.157 353.088 135.424C351.407 135.69 349.825 136.394 348.503 137.465C347.181 138.537 346.164 139.938 345.555 141.527C344.946 143.117 344.767 144.838 345.035 146.519C345.303 148.2 346.01 149.78 347.083 151.101C348.156 152.422 349.558 153.437 351.148 154.044C352.738 154.651 354.46 154.828 356.14 154.558C357.821 154.288 359.4 153.58 360.72 152.505L428.936 147.615L464.167 126.707Z" fill="#FFB8B8"/>
<path d="M460.199 129.928L485.894 110.833L490.42 94.5223C491.297 91.317 491.26 87.9303 490.313 84.7449C489.366 81.5596 487.548 78.7026 485.062 76.4967V76.4967C481.673 73.5293 477.283 71.9594 472.781 72.1047C468.278 72.25 463.999 74.0995 460.808 77.2793C451.139 86.9307 440.11 100.395 442.479 109.732L442.503 109.827L460.199 129.928Z" fill="#6C63FF"/>
<path d="M486.125 56.8842C498.744 56.8842 508.973 46.6545 508.973 34.0355C508.973 21.4165 498.744 11.1867 486.125 11.1867C473.506 11.1867 463.276 21.4165 463.276 34.0355C463.276 46.6545 473.506 56.8842 486.125 56.8842Z" fill="#FFB8B8"/>
<path d="M501.161 57.9312C497.339 56.1361 492.876 57.227 488.657 57.393C484.438 57.5591 479.326 55.9685 478.43 51.8422C477.769 48.7911 479.758 45.447 478.504 42.5878C477.137 39.4697 473.034 39.0259 469.743 38.1529C465.618 36.961 461.98 34.4855 459.358 31.0858C456.735 27.6861 455.264 23.5391 455.159 19.2467C454.93 20.9503 457.845 21.5099 458.803 20.0823C459.76 18.6548 459.101 16.6789 458.045 15.3225C456.989 13.966 455.564 12.8827 454.768 11.3593C453.972 9.83585 454.127 7.57339 455.681 6.84026C456.478 8.44862 457.607 9.86978 458.993 11.01C460.379 12.1502 461.991 12.9836 463.723 13.4551C463.016 11.3069 464.016 8.89182 465.625 7.30291C467.335 5.81422 469.305 4.6541 471.436 3.88091C476.703 1.59778 482.852 -0.674185 487.953 1.96002C489.27 2.65303 490.413 3.63458 491.297 4.83135C492.181 6.02813 492.783 7.4092 493.059 8.87141C502.493 9.66918 512.182 19.8893 511.644 29.3425C511.066 39.5192 510.644 40.3426 502.173 57.4676" fill="#2F2E41"/>
<path d="M648.929 477.305L333.572 477.612C333.257 477.61 332.956 477.484 332.734 477.261C332.512 477.038 332.387 476.736 332.387 476.421C332.387 476.106 332.512 475.805 332.734 475.581C332.956 475.358 333.257 475.232 333.572 475.23L648.929 474.923C649.244 474.925 649.545 475.051 649.767 475.274C649.989 475.497 650.114 475.799 650.114 476.114C650.114 476.429 649.989 476.731 649.767 476.954C649.545 477.177 649.244 477.303 648.929 477.305V477.305Z" fill="#CACACA"/>
</g>
<defs>
<clipPath id="clip0_1_2">
<rect width="650.114" height="477.612" fill="white"/>
</clipPath>
</defs>
</svg>
